<?xml version="1.0" encoding="UTF-8"?>
<svg width="512" height="428" version="1.1" viewBox="0 0 512 428" xml:space="preserve" xmlns="http://www.w3.org/2000/svg">
	<path d="m57.801 148.82c6.428 0 11.641-5.212 11.641-11.64 0-6.429-5.213-11.64-11.641-11.64s-11.641 5.211-11.641 11.64c-1e-3 6.428 5.212 11.64 11.641 11.64zm97.046 31.003c0.168 4.47 3.845 7.98 8.282 7.98 0.106 0 0.212-2e-3 0.32-6e-3l41.024-1.553c4.577-0.174 8.147-4.024 7.973-8.601-0.173-4.577-4.01-8.144-8.601-7.974l-41.024 1.553c-4.578 0.172-8.149 4.024-7.974 8.601zm37.301-31.003c6.427 0 11.638-5.212 11.638-11.64 0-6.429-5.212-11.64-11.638-11.64-6.431 0-11.644 5.211-11.644 11.64 1e-3 6.428 5.214 11.64 11.644 11.64zm-46.794 33.394 6.929-7.185c8.078-8.378 6.863-15.327 5.419-18.723-1.443-3.396-5.601-9.094-17.238-9.094h-31.185c-11.731 0-15.783 5.694-17.155 9.089-1.371 3.395-2.412 10.307 6.028 18.455l8.439 8.149c5.122 4.945 11.88 7.669 19.032 7.669 7.524 0 14.532-2.969 19.731-8.36zm50.7 27.971-33.477-20.099c-3.926-2.358-9.022-1.086-11.379 2.842-2.359 3.927-1.086 9.022 2.841 11.379l33.478 20.099c1.336 0.803 2.808 1.184 4.262 1.184 2.817 0 5.563-1.435 7.117-4.026 2.358-3.927 1.086-9.021-2.842-11.379zm-109.24-22.382c4.436 0 8.114-3.51 8.282-7.98 0.174-4.577-3.396-8.429-7.973-8.601l-41.024-1.553c-0.108-3e-3 -0.213-6e-3 -0.32-6e-3 -4.436 0-8.114 3.51-8.282 7.98-0.174 4.577 3.396 8.429 7.973 8.601l41.024 1.553c0.108 4e-3 0.214 6e-3 0.32 6e-3zm425.18 13.021c0-45.116-36.704-81.82-81.82-81.82-19.88 0-36.053-16.173-36.053-36.053s16.173-36.053 36.053-36.053c12.618 0 22.884-10.266 22.884-22.884s-10.266-22.884-22.884-22.884c-45.116 0-81.821 36.705-81.821 81.821 0 45.116 36.705 81.821 81.821 81.821 19.878 0 36.051 16.173 36.051 36.053 0 8.21-2.74 15.955-7.687 22.23-22.773-32.917-60.783-54.528-103.75-54.528h-105.01c0.112-2.169 0.17-4.337 0.17-6.506v-80.96c0-0.077-1e-3 -0.156-3e-3 -0.232v-53.162c0-10.713-8.714-19.427-19.426-19.427-4.931 0-9.632 1.849-13.238 5.208-0.072 0.067-0.143 0.136-0.212 0.206l-37.743 37.744c-16.482-9.567-35.134-14.593-54.353-14.593-19.221 0-37.873 5.026-54.354 14.593l-37.746-37.744c-0.07-0.07-0.14-0.138-0.212-0.206-3.606-3.359-8.307-5.208-13.236-5.208-10.713 0-19.427 8.716-19.427 19.427v134.35c0 33.239 13.249 66.785 36.349 92.037 9.139 9.989 19.346 18.27 30.302 24.706-9.747 7.505-15.689 19.173-15.689 31.879v58.145h-21.307c-16.326 0-29.607 13.281-29.607 29.607v11.693c0 9.878 8.037 17.914 17.916 17.914h83.923c4.744 0 9.331-1.12 13.454-3.227 2.903 2.028 6.426 3.227 10.227 3.227h83.923c7.063 0 13.553-2.489 18.647-6.632h32.389c3.288 4.042 8.295 6.632 13.9 6.632h92.039c33.324 0 62.45-18.229 77.991-45.225l0.237 0.232c23.334-23.725 36.184-55.12 36.184-88.402 0-9.385-1.04-18.533-2.995-27.339 21.469-15.386 34.117-39.794 34.117-66.442zm-463.41 42.036c-20.337-22.231-32-51.696-32-80.84v-134.35c0-1.566 1.273-2.839 2.838-2.839 0.864 0 1.477 0.362 1.857 0.692l42.264 42.264c2.799 2.798 7.181 3.228 10.473 1.033 15.107-10.091 32.727-15.425 50.955-15.425 18.226 0 35.846 5.334 50.955 15.424 3.288 2.197 7.672 1.767 10.471-1.033l42.264-42.263c0.379-0.331 0.993-0.692 1.859-0.692 1.565 0 2.838 1.273 2.838 2.839v53.391c0 0.077 1e-3 0.156 3e-3 0.232v80.728c0 29.144-11.665 58.61-32.002 80.84-20.891 22.836-48.019 35.412-76.387 35.412-28.37 2e-3 -55.498-12.574-76.388-35.41zm59.065 155.53v11.668c-1.774 0.87801-3.736 1.351-5.766 1.351h-83.923c-0.732 0-1.328-0.595-1.328-1.326v-11.693c0-7.178 5.84-13.019 13.019-13.019h29.602c4.582 0 8.294-3.714 8.294-8.294v-66.439c0-4.06 1.037-7.939 2.895-11.347v18.062c0 31.118 13.517 59.908 37.239 79.743-0.019 0.429-0.032 0.859-0.032 1.294zm6.162-18.049c-17.131-16.425-26.781-38.879-26.781-62.988v-29.072c12.165 4.323 24.927 6.576 37.941 6.576 14.202 0 28.106-2.678 41.257-7.809-4.815 6.634-7.664 14.784-7.664 23.589v58.145h-21.308c-9.536 9.9e-4 -18.028 4.537-23.445 11.559zm108.69 18.049c0 7.179-5.84 13.019-13.018 13.019h-83.923c-0.732 0-1.327-0.595-1.327-1.326v-11.693c0-7.178 5.84-13.019 13.019-13.019h29.601c4.582 0 8.294-3.714 8.294-8.294v-66.439c0-13.056 10.622-23.678 23.678-23.678 13.055 0 23.675 10.622 23.675 23.678v87.753h1e-3zm143.96 13.019h-92.039c-0.732 0-1.328-0.595-1.328-1.326v-11.693c0-7.178 5.84-13.019 13.019-13.019h8.609c2.927 0 5.638-1.543 7.132-4.06 1.493-2.517 1.55-5.634 0.15-8.204-5.826-10.684-8.904-22.806-8.904-35.057 0-40.45 32.909-73.359 73.36-73.359s73.36 32.908 73.36 73.359c1e-3 40.45-32.909 73.359-73.359 73.359zm89.887-75.754c-1.277-48.491-41.093-87.551-89.887-87.551-49.598 0-89.948 40.35-89.948 89.947 0 10.601 1.883 21.129 5.506 31.015-14.395 1.999-25.512 14.388-25.512 29.324v6.387h-18.115c0.454-2.058 0.702-4.195 0.702-6.387v-87.753c0-22.202-18.062-40.266-40.263-40.266-1.093 0-2.172 0.056-3.243 0.142 6.357-4.822 12.387-10.314 18.01-16.461 17.737-19.389 29.657-43.668 34.241-68.943h106.95c60.376 0 109.49 49.118 109.49 109.49-2e-3 14.289-2.734 28.174-7.939 41.054zm16.441-85.461c-1.578-4.18-3.372-8.256-5.368-12.213 9.849-9.826 15.396-23.02 15.396-37.16 0-29.026-23.615-52.641-52.639-52.641-35.969 0-65.233-29.263-65.233-65.233 0-35.97 29.263-65.233 65.233-65.233 3.472 0 6.296 2.824 6.296 6.296 0 3.471-2.824 6.296-6.296 6.296-29.027 0-52.641 23.615-52.641 52.641s23.615 52.641 52.641 52.641c35.968 0 65.232 29.262 65.232 65.232-2e-3 19.267-8.299 37.07-22.621 49.374zm-385.42-60.111-33.477 20.099c-3.928 2.358-5.2 7.452-2.841 11.379 1.555 2.591 4.302 4.026 7.118 4.026 1.453 0 2.926-0.382 4.262-1.184l33.477-20.099c3.928-2.358 5.2-7.452 2.841-11.379-2.359-3.928-7.456-5.199-11.38-2.842z" />
</svg>
