<?xml version="1.0" encoding="UTF-8"?>
<svg width="500" height="246" version="1.1" viewBox="0 0 500 246" xml:space="preserve" xmlns="http://www.w3.org/2000/svg">
	<g transform="translate(16.695 -122.33)" stroke-width=".99597">
		<path d="m47.331 185.37c17.262-0.0433 31.219-13.994 31.175-31.177-0.03317-17.186-14.051-31.073-31.311-31.038-17.268 0.0429-31.227 13.993-31.184 31.175 0.04241 17.191 14.06 31.075 31.32 31.04z" />
		<path d="m418.69 184.54c17.268-0.0335 31.219-13.995 31.174-31.168-0.0349-17.188-14.052-31.074-31.304-31.036-17.276 0.0399-31.217 13.986-31.183 31.174 0.0426 17.181 14.059 31.075 31.313 31.03z" />
		<path d="m483.3 313.49c-0.0149-6.8796-5.7029-12.445-12.525-12.417l-20.002 0.0497c0.74491-1.679 1.0716-3.5347 1.2265-5.4482 0.01-4.1642 0.27607-78.651-0.19254-82.774 0.077-11.25-11.652-22.166-24.782-22.16-12.805 0.0353-23.216 9.6743-24.651 22.031l-46.589 26.964c-7.9544 4.6076-10.654 14.758-6.0282 22.684 0.76962 1.3105 1.8861 2.2302 2.9291 3.2406-5.5651 0.70689-9.9304 5.2554-9.9118 10.986l0.0514 24.71-86.397 0.18608-132.72 0.30187-0.0583-24.72c-0.019-5.6568-4.2616-10.181-9.7364-10.903 0.98543-0.98809 1.9617-2.0019 2.697-3.2661 4.5895-7.9442 1.8425-18.084-6.129-22.658l-46.722-26.763c-1.4963-12.357-11.892-21.967-24.757-21.921-12.977 0.0273-24.775 10.924-24.676 22.235-0.4176 3.9829 0.17724 82.803 0.17724 82.803 0.16322 1.9064 0.49097 3.7615 1.2498 5.4282l-19.985 0.0455c-6.9029 0.0169-12.491 5.5954-12.472 12.468 0.01279 6.9221 5.6864 12.441 12.525 12.416l66.282-0.14739-7.7372 18.496c-3.5362 8.4652 0.47989 18.169 8.9768 21.696 8.5679 3.5341 18.281-0.52317 21.796-8.9333l13.11-31.336 159.85-0.3559 110.31-0.23954 13.243 31.269c3.5795 8.4393 13.353 12.391 21.836 8.8466 8.4805-3.5624 12.458-13.297 8.8872-21.737l-7.822-18.458 66.274-0.15024c6.9034-0.0189 12.489-5.5978 12.472-12.469zm-81.138-62.21 0.0655 26.613-29.166 0.0709c-2.7401 6e-3 -5.377 0.694-7.7231 1.9293l-6e-3 -3.301c-3e-3 -2.3606-0.90565-4.4291-2.1575-6.2393 3.1778 0.19133 6.4179-0.21885 9.3732-1.9309zm-303.92 19.53c1.5979 0.38565 3.2214 0.4595 4.8236 0.37178-1.1478 1.7556-1.982 3.7383-1.9712 6.0005l9e-3 3.2935c-2.3496-1.2174-4.9897-1.8954-7.7288-1.8889l-29.173 0.061-0.05849-26.612c3.5136 2.0136 30.477 17.9 34.099 18.774z" />
	</g>
</svg>
